<svg width="36" height="36" viewBox="0 0 36 36" fill="none" xmlns="http://www.w3.org/2000/svg">
<g clip-path="url(#clip0_64_96)">
<path d="M21.4453 0.0703125L25.1182 0.0945C25.1874 0.148219 25.2433 0.183375 25.3027 0.209812C25.9684 0.51075 26.6901 0.726188 27.29 1.12613C29.0293 2.28206 30.7277 3.50016 32.4251 4.71769C33.214 5.28216 33.9916 5.86997 34.7189 6.50925C35.2595 6.984 35.5022 7.65759 35.5036 8.37591L35.5022 30.9802C35.5014 31.2955 35.4474 31.6198 35.3596 31.923C34.9608 33.3051 34.0763 34.2509 32.6844 34.6202C31.9503 34.8145 31.1749 34.875 30.4136 34.9377C29.2258 35.0364 28.0339 35.0848 26.8439 35.1562L24.5928 35.2969L20.9883 35.5089L18.7723 35.6473L15.1327 35.8582L13.2517 35.9353C13.1912 35.9384 13.1353 36.0231 13.0782 36.0703C11.6466 36.0703 10.2162 36.0703 8.7725 36.0472C8.70332 35.9924 8.65072 35.9482 8.58913 35.9308C7.71669 35.678 6.98516 35.1959 6.42266 34.4959C5.6436 33.5281 4.90335 32.5305 4.1541 31.5397C3.23329 30.3221 2.28857 29.1226 1.41838 27.8702C0.906907 27.1384 0.632954 26.2669 0.633692 25.3741C0.63124 18.6981 0.632084 12.022 0.636224 5.346C0.636224 5.15363 0.669974 4.95928 0.703161 4.76803C1.05247 2.71266 2.57404 1.61606 4.3836 1.41272C5.32297 1.30725 6.26882 1.26 7.21269 1.19756L9.70738 1.05356L10.7798 0.98325L14.0142 0.70425L15.8071 0.563625L18.7768 0.352687L21.2715 0.205313C21.3323 0.201094 21.3883 0.117562 21.4453 0.0703125ZM7.29707 32.1143C7.44669 32.3086 7.61347 32.4931 7.74426 32.6998C8.37819 33.6918 9.28691 34.0521 10.4414 33.9753L18.2627 33.5095L27.0647 32.9777L31.4472 32.6953C32.746 32.591 33.3732 31.889 33.3985 30.5859V30.3047L33.4083 8.96822C33.4094 8.32556 33.1875 7.87612 32.6734 7.51697L26.4792 3.15197C25.4827 2.42691 24.4249 2.08856 23.1998 2.18531L16.263 2.69831L9.00988 3.23325L4.45729 3.58819C3.5376 3.67256 2.9675 4.23506 2.80269 5.13731C2.76262 5.36762 2.74314 5.60105 2.74447 5.83481L2.72563 24.4654C2.71916 25.686 3.09266 26.7013 3.82335 27.6351L7.29707 32.1143Z" fill="white"/>
<path d="M7.28067 32.0955L3.82327 27.6349C3.09258 26.7011 2.71908 25.6861 2.72555 24.4655L2.74439 5.83489C2.74439 5.60202 2.76183 5.36577 2.80261 5.13739C2.96742 4.23542 3.53752 3.67292 4.4572 3.58827L9.0098 3.23333L16.2632 2.69839L23.1997 2.18539C24.4248 2.08864 25.4826 2.42699 26.4791 3.15205C28.5215 4.63845 30.6022 6.07227 32.6733 7.51705C33.1875 7.8762 33.4094 8.32564 33.4082 8.9683L33.3984 30.3059V30.5871C33.3731 31.889 32.7459 32.591 31.4471 32.6954C29.9882 32.813 28.526 32.8889 27.0646 32.9778L18.2626 33.5093L10.4414 33.9754C9.28683 34.0521 8.37811 33.6919 7.74417 32.6999C7.61339 32.4932 7.44661 32.3087 7.28067 32.0955ZM9.08236 19.1602V28.5787L9.08461 30.3354C9.0998 31.1232 9.48567 31.5155 10.2732 31.5605C10.4709 31.5715 10.6709 31.5648 10.8697 31.5527L17.4628 31.164L30.0529 30.4443C30.8376 30.4004 31.2001 30.0564 31.2735 29.2788C31.2879 29.139 31.2834 28.9975 31.2834 28.8569L31.2845 10.7227C31.2845 10.6173 31.2879 10.5118 31.2814 10.4063C31.2342 9.68464 30.9242 9.39017 30.207 9.42842L23.7183 9.80221C20.6791 9.97902 17.6399 10.157 14.6008 10.336L10.0425 10.6097C9.46148 10.6468 9.1988 10.8974 9.11105 11.4655C9.09027 11.6162 9.08106 11.7682 9.08348 11.9203L9.08236 19.1602ZM25.162 4.33077C24.6116 4.03208 24.0139 3.93308 23.3985 3.96711C22.4527 4.01886 21.5069 4.09677 20.5607 4.16511L7.07508 5.14499C6.66755 5.17452 6.25777 5.20405 5.85558 5.27689C5.72058 5.30108 5.55014 5.4372 5.50852 5.56039C5.47758 5.64702 5.61398 5.82195 5.71383 5.91758C5.89861 6.0942 6.11152 6.24242 6.31289 6.40189C6.79073 6.77877 7.29923 7.12245 7.7377 7.53899C8.56936 8.32874 9.53714 8.51127 10.6458 8.43111L19.3744 7.8838L28.771 7.32017C28.8568 7.31595 28.9425 7.28952 29.1313 7.25436C28.9589 7.0752 28.8587 6.93795 28.7282 6.8412C28.2679 6.50122 27.8031 6.16725 27.3341 5.83939C26.6134 5.33165 25.8894 4.82876 25.162 4.33077Z" fill="black"/>
<path d="M9.08238 19.125L9.0835 11.9202C9.0835 11.7683 9.088 11.6147 9.11106 11.4654C9.19881 10.8973 9.4615 10.647 10.0426 10.6096L14.6008 10.3359L23.7183 9.80209L30.2068 9.42831C30.9242 9.39006 31.2342 9.68537 31.2812 10.4062C31.2879 10.5117 31.2845 10.6172 31.2845 10.7226L31.2834 28.8568L31.2736 29.2787C31.2002 30.0563 30.8376 30.4003 30.0529 30.4442L17.4628 31.1639L10.8697 31.5526L10.2735 31.5604C9.48569 31.5154 9.09981 31.1231 9.08463 30.3364L9.08238 28.5786V19.125ZM21.9541 19.1435L18.3349 13.6296C18.2087 13.4372 18.0846 13.3737 17.8518 13.399L16.3091 13.5031L13.4713 13.7109C12.7738 13.7747 12.3519 14.4306 12.5451 15.1107L14.0481 15.2392V27.4154L13.0244 27.7042C12.5704 27.8381 12.3761 28.2206 12.5288 28.7094L15.9904 28.5106L17.3539 28.3986C17.9418 28.3019 18.2582 27.9416 18.3372 27.3538L16.4444 26.9221V17.7637L16.585 17.9606L20.9354 24.7533C21.5749 25.7453 22.2316 26.7261 22.9053 27.6952C23.3853 28.3843 24.093 28.5952 24.8883 28.4237C25.3862 28.3173 25.864 28.1151 26.3517 27.9579C26.6057 27.8755 26.6923 27.7239 26.6912 27.4393L26.6827 14.9237C26.6827 14.1921 26.6827 14.1921 27.4064 14.0462C28.1382 13.8988 28.3216 13.6066 28.1545 12.8244L23.7811 13.0902C23.3052 13.1242 22.9449 13.5219 22.8726 13.9846C22.8372 14.2076 22.8833 14.3305 23.1502 14.346L24.4743 14.4922V22.9801C23.6357 21.7007 22.7956 20.4222 21.9541 19.1447V19.1435ZM25.1859 4.34275C25.9038 4.83853 26.6197 5.33728 27.3335 5.839C27.8027 6.16695 28.2675 6.50101 28.728 6.84109C28.8585 6.93784 28.9586 7.07509 29.131 7.25425L28.7707 7.32006L19.3742 7.88369L10.6456 8.431C9.53688 8.51115 8.56909 8.32862 7.73744 7.53887C7.29897 7.12262 6.79047 6.77865 6.31234 6.40178C6.11125 6.24231 5.89834 6.09409 5.71356 5.91719C5.61372 5.82156 5.47731 5.64719 5.50825 5.56C5.54988 5.43709 5.72144 5.30097 5.85531 5.27678C6.2575 5.20422 6.66728 5.1744 7.07481 5.14487L20.5608 4.165L23.3986 3.967C24.0137 3.93325 24.6113 4.03169 25.1859 4.34275Z" fill="white"/>
<path d="M21.9692 19.1644L24.4743 22.9801V14.492L23.1505 14.3457C22.8833 14.3306 22.8372 14.2077 22.8723 13.9846C22.9449 13.522 23.3054 13.1243 23.7808 13.0902L28.1545 12.8245C28.3215 13.6063 28.1382 13.8988 27.4064 14.0459C26.6824 14.1911 26.6824 14.1911 26.6824 14.9237L26.6911 27.4393C26.6923 27.724 26.6056 27.8756 26.3517 27.958L24.8883 28.4237C24.0929 28.5941 23.3853 28.3843 22.9055 27.6953C22.2321 26.726 21.5754 25.7452 20.9356 24.7534L16.5847 17.9604C16.554 17.912 16.5189 17.867 16.4441 17.7638V26.9221L18.3372 27.3538C18.2581 27.9417 17.9417 28.3017 17.3539 28.3987C16.9056 28.4721 16.4455 28.4831 15.9904 28.5106L12.5288 28.7095C12.3761 28.2207 12.5704 27.8382 13.0244 27.7043L14.0481 27.4154V15.2393L12.5451 15.1107C12.3519 14.4307 12.7738 13.7748 13.4713 13.711C14.4151 13.6229 15.3632 13.5692 16.3091 13.5034C16.8232 13.4682 17.3396 13.455 17.8517 13.3991C18.0846 13.3737 18.2089 13.4373 18.3349 13.6297L21.9692 19.1644Z" fill="black"/>
</g>
<defs>
<clipPath id="clip0_64_96">
<rect width="36" height="36" fill="white"/>
</clipPath>
</defs>
</svg>
