<svg width="36" height="33" viewBox="0 0 36 33" fill="none" xmlns="http://www.w3.org/2000/svg">
<path d="M29.5992 10.3815C29.216 10.2501 28.8297 10.1283 28.4404 10.0163C28.5058 9.74908 28.566 9.48513 28.6194 9.22582C29.4967 4.96755 28.9232 1.53701 26.9644 0.407507C25.0864 -0.675306 22.015 0.453772 18.9131 3.15335C18.6074 3.41987 18.3084 3.69408 18.0166 3.97573C17.8212 3.78845 17.6224 3.60481 17.4202 3.4249C14.1692 0.538429 10.9107 -0.678118 8.95402 0.454616C7.07766 1.5408 6.52205 4.76576 7.3118 8.80141C7.39037 9.2011 7.47909 9.59873 7.57786 9.99391C7.11661 10.125 6.67153 10.2645 6.24558 10.413C2.43408 11.7419 0 13.8244 0 15.9845C0 18.2156 2.61309 20.4533 6.58294 21.8102C6.90479 21.9197 7.22931 22.0213 7.5562 22.1147C7.45007 22.5403 7.35582 22.9688 7.27355 23.3997C6.52064 27.3653 7.10859 30.5141 8.97989 31.5934C10.9126 32.7079 14.1566 31.5624 17.3152 28.8012C17.5713 28.5767 17.8217 28.3459 18.0664 28.1089C18.3824 28.4139 18.7069 28.71 19.0395 28.9969C22.0992 31.6296 25.121 32.6928 26.9904 31.6105C28.9214 30.4927 29.549 27.1101 28.7342 22.9947C28.67 22.6723 28.598 22.3515 28.5183 22.0325C28.7461 21.965 28.9697 21.8956 29.1877 21.8233C33.3148 20.456 36 18.2454 36 15.9845C36 13.8165 33.4873 11.7199 29.5992 10.3815ZM28.7041 20.3636C28.507 20.4287 28.3055 20.4917 28.0994 20.5527C27.6438 19.1104 27.029 17.5767 26.2765 15.992C26.9945 14.4451 27.5857 12.931 28.0285 11.498C28.3968 11.6046 28.7542 11.717 29.0987 11.8355C32.4301 12.9825 34.4621 14.678 34.4621 15.9845C34.4621 17.3762 32.2675 19.1828 28.7041 20.3636ZM27.2256 23.2934C27.5858 25.1131 27.6372 26.7584 27.3985 28.0447C27.1842 29.2005 26.7531 29.971 26.2198 30.2796C25.0854 30.9364 22.6592 30.0828 20.0426 27.8311C19.7333 27.5643 19.4314 27.2891 19.1374 27.0056C20.1518 25.8962 21.1656 24.6065 22.155 23.1741C23.8954 23.0197 25.5396 22.7672 27.0307 22.4225C27.1043 22.7189 27.1692 23.0092 27.2256 23.2934ZM12.2732 30.1661C11.1648 30.5575 10.2819 30.5688 9.74827 30.2611C8.61272 29.6062 8.14064 27.0779 8.78456 23.6866C8.86111 23.2858 8.94875 22.8873 9.04739 22.4914C10.522 22.8176 12.1542 23.0522 13.8987 23.1937C14.8949 24.5953 15.9379 25.8836 16.989 27.0116C16.7656 27.2278 16.537 27.4384 16.3032 27.6433C14.9064 28.8642 13.5068 29.7305 12.2732 30.1661ZM7.08047 20.355C5.32505 19.755 3.87534 18.9752 2.88169 18.1243C1.98872 17.3597 1.53802 16.6005 1.53802 15.9845C1.53802 14.6736 3.49228 13.0016 6.75183 11.8652C7.14741 11.7274 7.56141 11.5973 7.99102 11.4753C8.44158 12.9406 9.03248 14.4727 9.74559 16.0219C9.0232 17.5941 8.42386 19.1507 7.96894 20.6333C7.67055 20.5478 7.37431 20.455 7.08047 20.355ZM8.82113 8.50596C8.14458 5.04841 8.59387 2.44024 9.72464 1.78563C10.929 1.08841 13.5921 2.08249 16.3991 4.57493C16.5822 4.73782 16.7622 4.90402 16.9393 5.07344C15.8933 6.19662 14.8598 7.47532 13.8725 8.86863C12.1794 9.02557 10.5587 9.27757 9.06862 9.61521C8.9768 9.24765 8.89427 8.87769 8.82113 8.50596ZM24.3499 12.3407C23.998 11.7327 23.633 11.1325 23.2552 10.5402C24.4038 10.6855 25.5043 10.8783 26.5378 11.114C26.2275 12.1085 25.8408 13.1481 25.3856 14.2141C25.0529 13.5828 24.7076 12.9582 24.3499 12.3407ZM18.0173 6.17271C18.7266 6.94123 19.437 7.79918 20.1358 8.73012C18.7183 8.66316 17.2984 8.66288 15.8809 8.72927C16.5804 7.80691 17.2969 6.95008 18.0173 6.17271ZM11.644 12.3511C11.2908 12.9636 10.952 13.5843 10.6277 14.2127C10.18 13.1505 9.79678 12.1061 9.48389 11.0975C10.511 10.8678 11.6063 10.6799 12.7477 10.5373C12.3657 11.1331 11.9977 11.738 11.644 12.3511ZM12.7804 21.5411C11.6013 21.4094 10.4895 21.2313 9.46266 21.0077C9.78047 19.9811 10.1721 18.9145 10.6296 17.8295C10.9551 18.4584 11.2953 19.0794 11.6501 19.6923C12.0149 20.3223 12.3926 20.9393 12.7804 21.5411ZM18.0598 25.9046C17.3308 25.1183 16.6037 24.2482 15.8937 23.3125C16.5831 23.3395 17.2858 23.3533 18 23.3533C18.7338 23.3533 19.4591 23.3368 20.1731 23.3051C19.4721 24.2576 18.7643 25.129 18.0598 25.9046ZM25.4001 17.7741C25.8813 18.871 26.2869 19.932 26.6089 20.941C25.5652 21.1792 24.4382 21.371 23.2508 21.5135C23.6313 20.9103 23.9998 20.2996 24.356 19.6817C24.7181 19.0537 25.0663 18.4177 25.4001 17.7741ZM23.0238 18.9133C22.4785 19.8606 21.9025 20.7899 21.2968 21.6998C20.1996 21.7776 19.1 21.8162 18 21.8156C16.8796 21.8156 15.7899 21.7807 14.7406 21.7126C14.119 20.8049 13.5321 19.8739 12.981 18.9218C12.4324 17.9747 11.9201 17.0071 11.445 16.0211C11.9189 15.0349 12.4297 14.0668 12.9765 13.119L12.9763 13.1192C13.5227 12.1711 14.105 11.2441 14.7219 10.3403C15.7925 10.2593 16.8903 10.2171 17.9999 10.2171C19.1145 10.2171 20.2139 10.2597 21.2842 10.3413C21.8948 11.2437 22.4734 12.1675 23.0188 13.1109C23.5672 14.0566 24.0848 15.0199 24.5707 15.9993C24.0898 16.9887 23.5738 17.9606 23.0238 18.9133ZM26.1963 1.73965C27.4018 2.4349 27.8706 5.23854 27.1132 8.91518C27.0646 9.14993 27.0107 9.38852 26.9515 9.63096C25.4578 9.28615 23.8359 9.02979 22.1379 8.87046C21.1487 7.46182 20.1237 6.18115 19.0948 5.07246C19.3644 4.81252 19.6405 4.55932 19.9228 4.31308C22.5806 2.00023 25.0646 1.08701 26.1963 1.73965ZM18 12.7699C19.7754 12.7699 21.2147 14.2091 21.2147 15.9845C21.2147 17.7599 19.7754 19.1992 18 19.1992C16.2246 19.1992 14.7853 17.7599 14.7853 15.9845C14.7853 14.2091 16.2246 12.7699 18 12.7699Z" fill="#00D8FF"/>
</svg>
